<svg width="40" height="40" viewBox="0 0 40 40" fill="none" xmlns="http://www.w3.org/2000/svg">
<path d="M0 4C0 1.79086 1.79086 0 4 0H36C38.2091 0 40 1.79086 40 4V36C40 38.2091 38.2091 40 36 40H4C1.79086 40 0 38.2091 0 36V4Z" fill="#2F7C68" fill-opacity="0.125"/>
<path d="M22.6654 26V24.6667C22.6654 23.9594 22.3844 23.2811 21.8843 22.781C21.3842 22.281 20.7059 22 19.9987 22H15.9987C15.2915 22 14.6132 22.281 14.1131 22.781C13.613 23.2811 13.332 23.9594 13.332 24.6667V26" stroke="#2F7C68" stroke-width="1.33333" stroke-linecap="round" stroke-linejoin="round"/>
<path d="M22.668 14.0859C23.2398 14.2342 23.7462 14.5681 24.1078 15.0353C24.4693 15.5025 24.6654 16.0765 24.6654 16.6673C24.6654 17.258 24.4693 17.832 24.1078 18.2992C23.7462 18.7664 23.2398 19.1004 22.668 19.2486" stroke="#2F7C68" stroke-width="1.33333" stroke-linecap="round" stroke-linejoin="round"/>
<path d="M26.668 25.9993V24.6659C26.6675 24.0751 26.4709 23.5011 26.1089 23.0341C25.7469 22.5672 25.2401 22.2336 24.668 22.0859" stroke="#2F7C68" stroke-width="1.33333" stroke-linecap="round" stroke-linejoin="round"/>
<path d="M17.9987 19.3333C19.4715 19.3333 20.6654 18.1394 20.6654 16.6667C20.6654 15.1939 19.4715 14 17.9987 14C16.5259 14 15.332 15.1939 15.332 16.6667C15.332 18.1394 16.5259 19.3333 17.9987 19.3333Z" stroke="#2F7C68" stroke-width="1.33333" stroke-linecap="round" stroke-linejoin="round"/>
</svg>
