<svg width="40" height="40" viewBox="0 0 40 40" fill="none" xmlns="http://www.w3.org/2000/svg">
<path d="M0 4C0 1.79086 1.79086 0 4 0H36C38.2091 0 40 1.79086 40 4V36C40 38.2091 38.2091 40 36 40H4C1.79086 40 0 38.2091 0 36V4Z" fill="#CBFFF3"/>
<path d="M24 19L26 21L30 17" stroke="#2F7C68" stroke-width="2" stroke-linecap="round" stroke-linejoin="round"/>
<path d="M24 29V27C24 25.9391 23.5786 24.9217 22.8284 24.1716C22.0783 23.4214 21.0609 23 20 23H14C12.9391 23 11.9217 23.4214 11.1716 24.1716C10.4214 24.9217 10 25.9391 10 27V29" stroke="#2F7C68" stroke-width="2" stroke-linecap="round" stroke-linejoin="round"/>
<path d="M17 19C19.2091 19 21 17.2091 21 15C21 12.7909 19.2091 11 17 11C14.7909 11 13 12.7909 13 15C13 17.2091 14.7909 19 17 19Z" stroke="#2F7C68" stroke-width="2" stroke-linecap="round" stroke-linejoin="round"/>
</svg>
