<svg width="40" height="40" viewBox="0 0 40 40" fill="none" xmlns="http://www.w3.org/2000/svg">
<path d="M0 4C0 1.79086 1.79086 0 4 0H36C38.2091 0 40 1.79086 40 4V36C40 38.2091 38.2091 40 36 40H4C1.79086 40 0 38.2091 0 36V4Z" fill="#F0A30A" fill-opacity="0.125"/>
<path d="M26.4856 24.0015L21.1523 14.6681C21.036 14.4629 20.8674 14.2922 20.6636 14.1735C20.4598 14.0548 20.2282 13.9922 19.9923 13.9922C19.7565 13.9922 19.5248 14.0548 19.321 14.1735C19.1172 14.2922 18.9486 14.4629 18.8323 14.6681L13.499 24.0015C13.3814 24.205 13.3198 24.4361 13.3203 24.6711C13.3208 24.9062 13.3835 25.137 13.5019 25.34C13.6204 25.5431 13.7904 25.7112 13.9948 25.8273C14.1991 25.9435 14.4306 26.0036 14.6656 26.0015H25.3323C25.5662 26.0012 25.796 25.9394 25.9985 25.8223C26.201 25.7052 26.3691 25.5368 26.486 25.3342C26.6028 25.1315 26.6643 24.9017 26.6643 24.6678C26.6642 24.4338 26.6026 24.204 26.4856 24.0015Z" stroke="#F0A30A" stroke-width="1.33333" stroke-linecap="round" stroke-linejoin="round"/>
<path d="M20 18V20.6667" stroke="#F0A30A" stroke-width="1.33333" stroke-linecap="round" stroke-linejoin="round"/>
<path d="M20 23.332H20.0067" stroke="#F0A30A" stroke-width="1.33333" stroke-linecap="round" stroke-linejoin="round"/>
</svg>
