<svg width="40" height="40" viewBox="0 0 40 40" fill="none" xmlns="http://www.w3.org/2000/svg">
<path d="M0 4C0 1.79086 1.79086 0 4 0H36C38.2091 0 40 1.79086 40 4V36C40 38.2091 38.2091 40 36 40H4C1.79086 40 0 38.2091 0 36V4Z" fill="#6A00FF" fill-opacity="0.125"/>
<path d="M21.9987 13.332H17.9987C17.6305 13.332 17.332 13.6305 17.332 13.9987V15.332C17.332 15.7002 17.6305 15.9987 17.9987 15.9987H21.9987C22.3669 15.9987 22.6654 15.7002 22.6654 15.332V13.9987C22.6654 13.6305 22.3669 13.332 21.9987 13.332Z" stroke="#6A00FF" stroke-width="1.33333" stroke-linecap="round" stroke-linejoin="round"/>
<path d="M22.668 14.668H24.0013C24.3549 14.668 24.6941 14.8084 24.9441 15.0585C25.1942 15.3085 25.3346 15.6477 25.3346 16.0013V25.3346C25.3346 25.6883 25.1942 26.0274 24.9441 26.2774C24.6941 26.5275 24.3549 26.668 24.0013 26.668H16.0013C15.6477 26.668 15.3085 26.5275 15.0585 26.2774C14.8084 26.0274 14.668 25.6883 14.668 25.3346V16.0013C14.668 15.6477 14.8084 15.3085 15.0585 15.0585C15.3085 14.8084 15.6477 14.668 16.0013 14.668H17.3346" stroke="#6A00FF" stroke-width="1.33333" stroke-linecap="round" stroke-linejoin="round"/>
<path d="M18 21.3333L19.3333 22.6667L22 20" stroke="#6A00FF" stroke-width="1.33333" stroke-linecap="round" stroke-linejoin="round"/>
</svg>
